# xmcd
# Track frame offsets:
# 150
# 11964
# 26434
# 38552
# 50638
# 68454
# 81095
# 91661
# 103614
# 114755
# 132878
# 148808
# 162181
# 175511
# 190959
# 202262
# 213650
# 225692
# 236350
# 251704
# 266004
# 294317
# 303995
# 318881
#
# Disc length: 4435 seconds
# Revision: 0
# Processed by: cddbd v1.4PL0 Copyright (c) Steve Scherf et al.
# Submitted via: VisiTrax 2.9.5.181 - For more info visit www.synapsa.com
#
DISCID=46115118
DTITLE=Various Artist - Dog-Gone Good Country
DYEAR=2003
DGENRE=Classic Country
TTITLE0=She Love s Romance. Troy Cook Jr.
TTITLE1=Headin In the Right Direction. Jillian Marie
TTITLE2=Treasures FromThe Past. Tennessee Bill Foster
TTITLE3=Texarcana Waltz. Sherry Leece
TTITLE4=My Last Glimpse of You.   Bob Norman
TTITLE5=Baby Blue Eyes. Foxx
TTITLE6='Messin' Around. Robin Deeter
TTITLE7=A Burnt Child Fears the Fire.  Jerri Arnold
TTITLE8=Texas Swing. Ernie Ashworth
TTITLE9=Songs From Paradise. Brant Miller
TTITLE10=These Songs From Paradise. Brant Miller.
TTITLE11=Corvette Man. Susan Marshall
TTITLE12=Whats Not to Love. Joanna Allen
TTITLE13=I Want to be a Cowboys Sweetheart.  Joanna Allen
TTITLE14=There must be More To Life. Jack Blanchard and Misty Morgan.
TTITLE15=Everybody's Talkin' At me. Mayf Nutter.
TTITLE16=A Country Love Song.  Joy Grim
TTITLE17=Silk and Lace.  Jim McGlasson
TTITLE18=What All Men Want.  Candy Sue and Allie.C
TTITLE19=Move a Little. Charlie Le Sueur.
TTITLE20=The Great Eagle Weeps. Wilf Mountain.
TTITLE21=Spring Time In Heaven.. Butch Doss and Brazosgrass.
TTITLE22=Is Jesus Pleased With You. The Whites.
TTITLE23=Jesse Polka.  Stardust Studio Band.
EXTD=
EXTT0=
EXTT1=
EXTT2=
EXTT3=
EXTT4=
EXTT5=
EXTT6=
EXTT7=
EXTT8=
EXTT9=
EXTT10=
EXTT11=
EXTT12=
EXTT13=
EXTT14=
EXTT15=
EXTT16=
EXTT17=
EXTT18=
EXTT19=
EXTT20=
EXTT21=
EXTT22=
EXTT23=
PLAYORDER=
